<svg height="48"
     width="48"
     xmlns="http://www.w3.org/2000/svg"
     xmlns:svg="http://www.w3.org/2000/svg">
   <path d="M 30.25,39.55 V 36.4 c 2.533333,-0.966667 4.558333,-2.6 6.075,-4.9 1.516667,-2.3 2.275,-4.85 2.275,-7.65 0,-1.8 -0.3,-3.475 -0.9,-5.025 -0.6,-1.55 -1.583333,-2.941667 -2.95,-4.175 l -1.5,-1.35 v 5.85 h -3 V 8 H 41.4 v 3 h -6.2 l 0.75,0.7 c 2.066667,1.9 3.525,3.9 4.375,6 0.85,2.1 1.275,4.15 1.275,6.15 0,3.6 -1.05,6.841667 -3.15,9.725 -2.1,2.883333 -4.833333,4.875 -8.2,5.975 z"
         style="fill:#89a02c" />
   <path d="m 6.6,40 v -3 h 6.15 l -0.7,-0.7 c -2,-2 -3.4416667,-4.025 -4.325,-6.075 C 6.8416667,28.175 6.4,26.166667 6.4,24.2 6.4,20.566667 7.4416667,17.316667 9.525,14.45 11.608333,11.583333 14.35,9.6 17.75,8.5 v 3.1 c -2.533333,1 -4.558333,2.65 -6.075,4.95 -1.516667,2.3 -2.275,4.85 -2.275,7.65 0,1.733333 0.2916667,3.375 0.875,4.925 0.583333,1.55 1.575,2.958333 2.975,4.225 l 1.5,1.35 v -5.85 h 3 V 40 Z"
         style="fill:#aad400" />
   <path
         d="m 19.527121,22.95146 c -0.4,0 -0.75,-0.15 -1.05,-0.45 -0.3,-0.3 -0.45,-0.65 -0.45,-1.05 0,-0.4 0.15,-0.75 0.45,-1.05 0.3,-0.3 0.65,-0.45 1.05,-0.45 0.4,0 0.75,0.15 1.05,0.45 0.3,0.3 0.45,0.65 0.45,1.05 0,0.4 -0.15,0.75 -0.45,1.05 -0.3,0.3 -0.65,0.45 -1.05,0.45 z" />
   <path
         d="m 27.104311,22.996522 c -0.4,0 -0.75,-0.15 -1.05,-0.45 -0.3,-0.3 -0.45,-0.65 -0.45,-1.05 0,-0.4 0.15,-0.75 0.45,-1.05 0.3,-0.3 0.65,-0.45 1.05,-0.45 0.4,0 0.75,0.15 1.05,0.45 0.3,0.3 0.45,0.65 0.45,1.05 0,0.4 -0.15,0.75 -0.45,1.05 -0.3,0.3 -0.65,0.45 -1.05,0.45 z" />
</svg>